<svg xmlns="http://www.w3.org/2000/svg" width="24" height="24" viewBox="0 0 24 24" role="img" aria-label="GOA">
  <defs>
    <linearGradient id="g" x1="0" y1="0" x2="24" y2="24" gradientUnits="userSpaceOnUse">
      <stop offset="0" stop-color="#57e08a"/>
      <stop offset="1" stop-color="#7dff9e"/>
    </linearGradient>
  </defs>
  <rect x="0.5" y="0.5" width="23" height="23" rx="6" fill="#0a110c" stroke="rgba(125,255,158,0.35)"/>
  <g fill="url(#g)">
    <!-- row 0 -->
    <rect x="6.7" y="4" width="2.2" height="2.2" rx="0.4"/>
    <rect x="9.4" y="4" width="2.2" height="2.2" rx="0.4"/>
    <rect x="12.1" y="4" width="2.2" height="2.2" rx="0.4"/>
    <rect x="14.8" y="4" width="2.2" height="2.2" rx="0.4"/>
    <!-- row 1 -->
    <rect x="4" y="6.7" width="2.2" height="2.2" rx="0.4"/>
    <rect x="6.7" y="6.7" width="2.2" height="2.2" rx="0.4"/>
    <!-- row 2 -->
    <rect x="4" y="9.4" width="2.2" height="2.2" rx="0.4"/>
    <rect x="6.7" y="9.4" width="2.2" height="2.2" rx="0.4"/>
    <rect x="12.1" y="9.4" width="2.2" height="2.2" rx="0.4"/>
    <rect x="14.8" y="9.4" width="2.2" height="2.2" rx="0.4"/>
    <rect x="17.5" y="9.4" width="2.2" height="2.2" rx="0.4"/>
    <!-- row 3 -->
    <rect x="4" y="12.1" width="2.2" height="2.2" rx="0.4"/>
    <rect x="6.7" y="12.1" width="2.2" height="2.2" rx="0.4"/>
    <rect x="14.8" y="12.1" width="2.2" height="2.2" rx="0.4"/>
    <rect x="17.5" y="12.1" width="2.2" height="2.2" rx="0.4"/>
    <!-- row 4 -->
    <rect x="4" y="14.8" width="2.2" height="2.2" rx="0.4"/>
    <rect x="6.7" y="14.8" width="2.2" height="2.2" rx="0.4"/>
    <rect x="14.8" y="14.8" width="2.2" height="2.2" rx="0.4"/>
    <rect x="17.5" y="14.8" width="2.2" height="2.2" rx="0.4"/>
    <!-- row 5 -->
    <rect x="6.7" y="17.5" width="2.2" height="2.2" rx="0.4"/>
    <rect x="9.4" y="17.5" width="2.2" height="2.2" rx="0.4"/>
    <rect x="12.1" y="17.5" width="2.2" height="2.2" rx="0.4"/>
    <rect x="14.8" y="17.5" width="2.2" height="2.2" rx="0.4"/>
  </g>
</svg>
